<mxfile host="app.diagrams.net" modified="2022-03-31T21:44:56.523Z" agent="5.0 (Windows NT 10.0; Win64; x64) AppleWebKit/537.36 (KHTML, like Gecko) Chrome/99.0.4844.84 Safari/537.36" etag="mnEpzc8xjlBlJww_Z9cO" version="17.2.4" type="github">
  <diagram id="incmQxMKSfGl5wKCG0BV" name="Page-1">
    <mxGraphModel dx="1805" dy="1744" grid="1" gridSize="10" guides="1" tooltips="1" connect="1" arrows="1" fold="1" page="1" pageScale="1" pageWidth="827" pageHeight="1169" math="0" shadow="0">
      <root>
        <mxCell id="0" />
        <mxCell id="1" parent="0" />
        <mxCell id="XddrjZvcEHtdNuk61_eD-15" value="Actividad" style="swimlane;fontStyle=1;align=center;verticalAlign=top;childLayout=stackLayout;horizontal=1;startSize=26;horizontalStack=0;resizeParent=1;resizeParentMax=0;resizeLast=0;collapsible=1;marginBottom=0;" parent="1" vertex="1">
          <mxGeometry x="725" y="110" width="365" height="240" as="geometry" />
        </mxCell>
        <mxCell id="XddrjZvcEHtdNuk61_eD-16" value="- titulo: String &#xa;- descripción: String&#xa;- autor: String&#xa;- tipo: String&#xa;- fecha: LocalDate&#xa;- hora_inicio: LocalTime&#xa;- hora_final: LocalTime&#xa;- tiempo_invertido: Double" style="text;strokeColor=none;fillColor=none;align=left;verticalAlign=top;spacingLeft=4;spacingRight=4;overflow=hidden;rotatable=0;points=[[0,0.5],[1,0.5]];portConstraint=eastwest;" parent="XddrjZvcEHtdNuk61_eD-15" vertex="1">
          <mxGeometry y="26" width="365" height="124" as="geometry" />
        </mxCell>
        <mxCell id="XddrjZvcEHtdNuk61_eD-17" value="" style="line;strokeWidth=1;fillColor=none;align=left;verticalAlign=middle;spacingTop=-1;spacingLeft=3;spacingRight=3;rotatable=0;labelPosition=right;points=[];portConstraint=eastwest;" parent="XddrjZvcEHtdNuk61_eD-15" vertex="1">
          <mxGeometry y="150" width="365" height="8" as="geometry" />
        </mxCell>
        <mxCell id="XddrjZvcEHtdNuk61_eD-18" value="+ modificar_fecha_y_hora(String fecha,String hora_inicio):void&#xa;+ tiempo_invertido(): void&#xa;+ ActividadCrono(String titulo, String descripcion, String autor,&#xa;String tipo, LocalDate fecha, LocalTime hora_inicial ,&#xa;LocalTime hora_final, Double tiempo_invertido): void" style="text;strokeColor=none;fillColor=none;align=left;verticalAlign=top;spacingLeft=4;spacingRight=4;overflow=hidden;rotatable=0;points=[[0,0.5],[1,0.5]];portConstraint=eastwest;" parent="XddrjZvcEHtdNuk61_eD-15" vertex="1">
          <mxGeometry y="158" width="365" height="82" as="geometry" />
        </mxCell>
        <mxCell id="XddrjZvcEHtdNuk61_eD-19" value="Reporte" style="swimlane;fontStyle=1;align=center;verticalAlign=top;childLayout=stackLayout;horizontal=1;startSize=26;horizontalStack=0;resizeParent=1;resizeParentMax=0;resizeLast=0;collapsible=1;marginBottom=0;" parent="1" vertex="1">
          <mxGeometry x="-90" y="260" width="280" height="140" as="geometry" />
        </mxCell>
        <mxCell id="XddrjZvcEHtdNuk61_eD-20" value="- Nombre_Participante: String&#xa;- tiempo_invertido: Double&#xa;- tiempo_invertido_tipo: HashMap&lt;String,Double&gt;&#xa;- tiempo_invertido_dia: HashMap&lt;String,Double&gt;" style="text;strokeColor=none;fillColor=none;align=left;verticalAlign=top;spacingLeft=4;spacingRight=4;overflow=hidden;rotatable=0;points=[[0,0.5],[1,0.5]];portConstraint=eastwest;" parent="XddrjZvcEHtdNuk61_eD-19" vertex="1">
          <mxGeometry y="26" width="280" height="74" as="geometry" />
        </mxCell>
        <mxCell id="XddrjZvcEHtdNuk61_eD-21" value="" style="line;strokeWidth=1;fillColor=none;align=left;verticalAlign=middle;spacingTop=-1;spacingLeft=3;spacingRight=3;rotatable=0;labelPosition=right;points=[];portConstraint=eastwest;" parent="XddrjZvcEHtdNuk61_eD-19" vertex="1">
          <mxGeometry y="100" width="280" height="8" as="geometry" />
        </mxCell>
        <mxCell id="XddrjZvcEHtdNuk61_eD-22" value="+ getters and setters()" style="text;strokeColor=none;fillColor=none;align=left;verticalAlign=top;spacingLeft=4;spacingRight=4;overflow=hidden;rotatable=0;points=[[0,0.5],[1,0.5]];portConstraint=eastwest;" parent="XddrjZvcEHtdNuk61_eD-19" vertex="1">
          <mxGeometry y="108" width="280" height="32" as="geometry" />
        </mxCell>
        <mxCell id="DFxFiUlvuluB2VAF8abr-8" style="edgeStyle=orthogonalEdgeStyle;rounded=0;orthogonalLoop=1;jettySize=auto;html=1;" parent="1" source="ZXk9ccuYGaarNcg2VIB--42" target="DFxFiUlvuluB2VAF8abr-10" edge="1">
          <mxGeometry relative="1" as="geometry">
            <mxPoint x="440" y="99.99999999999989" as="targetPoint" />
          </mxGeometry>
        </mxCell>
        <mxCell id="ZXk9ccuYGaarNcg2VIB--42" value="Proyecto" style="swimlane;fontStyle=1;align=center;verticalAlign=top;childLayout=stackLayout;horizontal=1;startSize=26;horizontalStack=0;resizeParent=1;resizeParentMax=0;resizeLast=0;collapsible=1;marginBottom=0;" parent="1" vertex="1">
          <mxGeometry x="284" y="-20" width="351" height="190" as="geometry">
            <mxRectangle x="289" y="220" width="80" height="26" as="alternateBounds" />
          </mxGeometry>
        </mxCell>
        <mxCell id="ZXk9ccuYGaarNcg2VIB--43" value="- nombre: String&#xa;- descripción: String&#xa;- fecha_Inicio: LocalDate&#xa;- fecha_final: LocalDate&#xa;- Participantes:HashMap&lt;String,Participante&gt;" style="text;strokeColor=none;fillColor=none;align=left;verticalAlign=top;spacingLeft=4;spacingRight=4;overflow=hidden;rotatable=0;points=[[0,0.5],[1,0.5]];portConstraint=eastwest;" parent="ZXk9ccuYGaarNcg2VIB--42" vertex="1">
          <mxGeometry y="26" width="351" height="84" as="geometry" />
        </mxCell>
        <mxCell id="ZXk9ccuYGaarNcg2VIB--44" value="" style="line;strokeWidth=1;fillColor=none;align=left;verticalAlign=middle;spacingTop=-1;spacingLeft=3;spacingRight=3;rotatable=0;labelPosition=right;points=[];portConstraint=eastwest;" parent="ZXk9ccuYGaarNcg2VIB--42" vertex="1">
          <mxGeometry y="110" width="351" height="8" as="geometry" />
        </mxCell>
        <mxCell id="ZXk9ccuYGaarNcg2VIB--45" value="+ agregar_participante(String nombre, String correo): void&#xa;+ eliminar_participante(String nombre):void&#xa;+ Reporte realizar_reporte_participante(String nombre): Reporte&#xa;+ getters and setter()" style="text;strokeColor=none;fillColor=none;align=left;verticalAlign=top;spacingLeft=4;spacingRight=4;overflow=hidden;rotatable=0;points=[[0,0.5],[1,0.5]];portConstraint=eastwest;" parent="ZXk9ccuYGaarNcg2VIB--42" vertex="1">
          <mxGeometry y="118" width="351" height="72" as="geometry" />
        </mxCell>
        <mxCell id="ZXk9ccuYGaarNcg2VIB--46" value="Participante" style="swimlane;fontStyle=1;align=center;verticalAlign=top;childLayout=stackLayout;horizontal=1;startSize=26;horizontalStack=0;resizeParent=1;resizeParentMax=0;resizeLast=0;collapsible=1;marginBottom=0;" parent="1" vertex="1">
          <mxGeometry x="140" y="461" width="404" height="300" as="geometry">
            <mxRectangle x="289" y="450" width="100" height="26" as="alternateBounds" />
          </mxGeometry>
        </mxCell>
        <mxCell id="ZXk9ccuYGaarNcg2VIB--47" value="- nombre: String&#xa;- correo: String&#xa;- dueno: Boolean&#xa;- Actividades: HashMap &lt;String, Actividad&gt;" style="text;strokeColor=none;fillColor=none;align=left;verticalAlign=top;spacingLeft=4;spacingRight=4;overflow=hidden;rotatable=0;points=[[0,0.5],[1,0.5]];portConstraint=eastwest;" parent="ZXk9ccuYGaarNcg2VIB--46" vertex="1">
          <mxGeometry y="26" width="404" height="64" as="geometry" />
        </mxCell>
        <mxCell id="ZXk9ccuYGaarNcg2VIB--48" value="" style="line;strokeWidth=1;fillColor=none;align=left;verticalAlign=middle;spacingTop=-1;spacingLeft=3;spacingRight=3;rotatable=0;labelPosition=right;points=[];portConstraint=eastwest;" parent="ZXk9ccuYGaarNcg2VIB--46" vertex="1">
          <mxGeometry y="90" width="404" height="8" as="geometry" />
        </mxCell>
        <mxCell id="ZXk9ccuYGaarNcg2VIB--49" value="+ agregar_actividadActividad_valorespordefecto(String titulo, &#xa;String descripcion, String autor, String tipo ,String hora_final): void&#xa;&#xa;+ agregar_actividadActividad_valoresmodificados(String titulo, &#xa;String descripcion, String autor, String tipo ,String fecha,String hora_incio,&#xa;String hora_final): void&#xa;&#xa;+agregar_actividadActividad_Crono(String titulo, String descripcion, &#xa;String autor, String tipo, LocalDate fecha, LocalTime hora_inicial ,&#xa;LocalTime hora_final, Double tiempo_invertido): void" style="text;strokeColor=none;fillColor=none;align=left;verticalAlign=top;spacingLeft=4;spacingRight=4;overflow=hidden;rotatable=0;points=[[0,0.5],[1,0.5]];portConstraint=eastwest;" parent="ZXk9ccuYGaarNcg2VIB--46" vertex="1">
          <mxGeometry y="98" width="404" height="202" as="geometry" />
        </mxCell>
        <mxCell id="ZXk9ccuYGaarNcg2VIB--53" value="" style="endArrow=diamondThin;endFill=0;endSize=24;html=1;curved=1;exitX=0.5;exitY=0;exitDx=0;exitDy=0;entryX=0.494;entryY=0.993;entryDx=0;entryDy=0;entryPerimeter=0;" parent="1" source="ZXk9ccuYGaarNcg2VIB--46" target="ZXk9ccuYGaarNcg2VIB--45" edge="1">
          <mxGeometry width="160" relative="1" as="geometry">
            <mxPoint x="270" y="610" as="sourcePoint" />
            <mxPoint x="420" y="390" as="targetPoint" />
          </mxGeometry>
        </mxCell>
        <mxCell id="ZXk9ccuYGaarNcg2VIB--54" value="Use" style="endArrow=open;endSize=12;dashed=1;html=1;edgeStyle=orthogonalEdgeStyle;" parent="1" source="DFxFiUlvuluB2VAF8abr-10" edge="1">
          <mxGeometry x="0.0406" y="-8" width="160" relative="1" as="geometry">
            <mxPoint x="440" y="99.99999999999989" as="sourcePoint" />
            <mxPoint x="145" y="230" as="targetPoint" />
            <mxPoint as="offset" />
          </mxGeometry>
        </mxCell>
        <mxCell id="ZXk9ccuYGaarNcg2VIB--57" style="edgeStyle=orthogonalEdgeStyle;rounded=0;orthogonalLoop=1;jettySize=auto;html=1;endArrow=diamondThin;endFill=0;strokeWidth=1;targetPerimeterSpacing=1;startArrow=none;exitX=-0.019;exitY=0.698;exitDx=0;exitDy=0;exitPerimeter=0;" parent="1" source="XddrjZvcEHtdNuk61_eD-16" target="ZXk9ccuYGaarNcg2VIB--47" edge="1">
          <mxGeometry relative="1" as="geometry">
            <mxPoint x="620" y="464" as="sourcePoint" />
            <Array as="points">
              <mxPoint x="596" y="464" />
              <mxPoint x="580" y="464" />
              <mxPoint x="580" y="528" />
            </Array>
          </mxGeometry>
        </mxCell>
        <mxCell id="ZXk9ccuYGaarNcg2VIB--58" value="Participantes*&#xa;" style="text;strokeColor=none;fillColor=none;align=left;verticalAlign=middle;spacingLeft=4;spacingRight=4;overflow=hidden;points=[[0,0.5],[1,0.5]];portConstraint=eastwest;rotatable=0;fontSize=11;" parent="1" vertex="1">
          <mxGeometry x="434" y="420" width="80" height="30" as="geometry" />
        </mxCell>
        <mxCell id="ZXk9ccuYGaarNcg2VIB--59" value="Actividades*&#xa;" style="text;strokeColor=none;fillColor=none;align=left;verticalAlign=middle;spacingLeft=4;spacingRight=4;overflow=hidden;points=[[0,0.5],[1,0.5]];portConstraint=eastwest;rotatable=0;fontSize=10;" parent="1" vertex="1">
          <mxGeometry x="534" y="442" width="66" height="12" as="geometry" />
        </mxCell>
        <mxCell id="ZXk9ccuYGaarNcg2VIB--62" style="edgeStyle=orthogonalEdgeStyle;rounded=0;orthogonalLoop=1;jettySize=auto;html=1;entryX=0.996;entryY=0.254;entryDx=0;entryDy=0;entryPerimeter=0;" parent="1" source="ZXk9ccuYGaarNcg2VIB--43" target="XddrjZvcEHtdNuk61_eD-22" edge="1">
          <mxGeometry relative="1" as="geometry" />
        </mxCell>
        <mxCell id="J5dITe3deXA6337DX1ma-8" value="1 Actividades *&#xa;" style="text;strokeColor=none;fillColor=none;align=left;verticalAlign=middle;spacingLeft=4;spacingRight=4;overflow=hidden;points=[[0,0.5],[1,0.5]];portConstraint=eastwest;rotatable=0;fontSize=11;" parent="1" vertex="1">
          <mxGeometry x="780" y="-10" width="90" height="21" as="geometry" />
        </mxCell>
        <mxCell id="nMU5c8A6cCMtayBZ8T7W-12" style="edgeStyle=orthogonalEdgeStyle;rounded=0;orthogonalLoop=1;jettySize=auto;html=1;entryX=0.419;entryY=-0.001;entryDx=0;entryDy=0;entryPerimeter=0;" parent="1" source="ZXk9ccuYGaarNcg2VIB--43" target="XddrjZvcEHtdNuk61_eD-15" edge="1">
          <mxGeometry relative="1" as="geometry" />
        </mxCell>
        <mxCell id="DFxFiUlvuluB2VAF8abr-1" value="Cronometro" style="swimlane;fontStyle=1;align=center;verticalAlign=top;childLayout=stackLayout;horizontal=1;startSize=26;horizontalStack=0;resizeParent=1;resizeParentMax=0;resizeLast=0;collapsible=1;marginBottom=0;" parent="1" vertex="1">
          <mxGeometry x="700" y="-280" width="220" height="214" as="geometry" />
        </mxCell>
        <mxCell id="DFxFiUlvuluB2VAF8abr-2" value="- tiempo_invertido: Double&#xa;- fecha: LocalDate: &#xa;- fecha_inicio: LocalTime&#xa;- fecha_final: LocalTime&#xa;- in_Hora: LocalTime&#xa;-tiempos: ArrayList &lt;Double&gt;" style="text;strokeColor=none;fillColor=none;align=left;verticalAlign=top;spacingLeft=4;spacingRight=4;overflow=hidden;rotatable=0;points=[[0,0.5],[1,0.5]];portConstraint=eastwest;" parent="DFxFiUlvuluB2VAF8abr-1" vertex="1">
          <mxGeometry y="26" width="220" height="94" as="geometry" />
        </mxCell>
        <mxCell id="DFxFiUlvuluB2VAF8abr-3" value="" style="line;strokeWidth=1;fillColor=none;align=left;verticalAlign=middle;spacingTop=-1;spacingLeft=3;spacingRight=3;rotatable=0;labelPosition=right;points=[];portConstraint=eastwest;" parent="DFxFiUlvuluB2VAF8abr-1" vertex="1">
          <mxGeometry y="120" width="220" height="8" as="geometry" />
        </mxCell>
        <mxCell id="DFxFiUlvuluB2VAF8abr-4" value="+ iniciar_crono():void&#xa;+ pausar_crono(): void&#xa;+ reanudar(): void&#xa;+ terminar_crono(): void&#xa;+getters and setters" style="text;strokeColor=none;fillColor=none;align=left;verticalAlign=top;spacingLeft=4;spacingRight=4;overflow=hidden;rotatable=0;points=[[0,0.5],[1,0.5]];portConstraint=eastwest;" parent="DFxFiUlvuluB2VAF8abr-1" vertex="1">
          <mxGeometry y="128" width="220" height="86" as="geometry" />
        </mxCell>
        <mxCell id="DFxFiUlvuluB2VAF8abr-10" value="CONSOLA" style="swimlane;fontStyle=1;align=center;verticalAlign=top;childLayout=stackLayout;horizontal=1;startSize=26;horizontalStack=0;resizeParent=1;resizeParentMax=0;resizeLast=0;collapsible=1;marginBottom=0;" parent="1" vertex="1">
          <mxGeometry x="359.5" y="-240" width="200" height="120" as="geometry" />
        </mxCell>
        <mxCell id="DFxFiUlvuluB2VAF8abr-11" value="-Proyecto: Proyecto&#xa;-br:BufferReader" style="text;strokeColor=none;fillColor=none;align=left;verticalAlign=top;spacingLeft=4;spacingRight=4;overflow=hidden;rotatable=0;points=[[0,0.5],[1,0.5]];portConstraint=eastwest;" parent="DFxFiUlvuluB2VAF8abr-10" vertex="1">
          <mxGeometry y="26" width="200" height="34" as="geometry" />
        </mxCell>
        <mxCell id="DFxFiUlvuluB2VAF8abr-12" value="" style="line;strokeWidth=1;fillColor=none;align=left;verticalAlign=middle;spacingTop=-1;spacingLeft=3;spacingRight=3;rotatable=0;labelPosition=right;points=[];portConstraint=eastwest;" parent="DFxFiUlvuluB2VAF8abr-10" vertex="1">
          <mxGeometry y="60" width="200" height="8" as="geometry" />
        </mxCell>
        <mxCell id="DFxFiUlvuluB2VAF8abr-13" value="+ MostrarMenu(): void&#xa;+EjecutarAplicacion(): void" style="text;strokeColor=none;fillColor=none;align=left;verticalAlign=top;spacingLeft=4;spacingRight=4;overflow=hidden;rotatable=0;points=[[0,0.5],[1,0.5]];portConstraint=eastwest;" parent="DFxFiUlvuluB2VAF8abr-10" vertex="1">
          <mxGeometry y="68" width="200" height="52" as="geometry" />
        </mxCell>
      </root>
    </mxGraphModel>
  </diagram>
</mxfile>
